<?xml version="1.0" standalone="no"?>
<!DOCTYPE svg PUBLIC "-//W3C//DTD SVG 20010904//EN"
 "http://www.w3.org/TR/2001/REC-SVG-20010904/DTD/svg10.dtd">
<svg version="1.0" xmlns="http://www.w3.org/2000/svg"
 width="148.000000pt" height="161.000000pt" viewBox="0 0 148.000000 161.000000"
 preserveAspectRatio="xMidYMid meet">
<metadata>
Created by potrace 1.10, written by Peter Selinger 2001-2011
</metadata>
<g transform="translate(0.000000,161.000000) scale(0.100000,-0.100000)"
fill="#ffffff" stroke="none">
<path d="M725 1270 c-22 -24 -43 -25 -81 -5 -66 34 -94 14 -94 -66 0 -58 0
-58 -70 -133 -60 -65 -70 -81 -70 -113 0 -74 76 -141 146 -130 19 3 47 15 63
27 54 38 43 2 -20 -66 -106 -114 -142 -229 -103 -331 15 -39 15 -43 0 -58 -21
-21 -20 -38 2 -58 16 -15 50 -17 273 -17 214 0 258 2 277 16 31 21 28 33 -24
86 l-46 48 -179 0 c-166 0 -180 1 -199 20 -45 45 -14 131 88 243 48 52 76 93
84 120 6 23 23 57 36 75 34 45 41 111 14 135 -31 28 -54 17 -82 -38 -24 -49
-26 -50 -74 -53 -29 -2 -61 -11 -77 -23 -30 -21 -54 -25 -64 -9 -3 5 19 39 49
74 30 36 62 79 71 96 l16 31 72 -7 c126 -12 185 -60 208 -172 14 -68 3 -192
-29 -310 -16 -61 -16 -63 5 -83 26 -26 46 -20 71 21 10 16 34 40 52 52 26 17
37 35 46 72 68 266 -35 508 -241 562 -69 19 -99 17 -120 -6z m-87 -36 c29 -15
79 -29 122 -35 125 -15 203 -76 241 -184 41 -119 -20 -490 -72 -438 -6 6 -4
24 5 52 9 23 22 78 31 122 48 253 -27 395 -217 413 -31 3 -73 12 -93 20 l-37
16 7 -30 c8 -35 -11 -65 -98 -157 l-59 -61 18 -27 c31 -47 48 -49 104 -12 44
29 57 34 94 30 38 -5 45 -2 64 22 13 16 22 42 22 61 0 27 4 34 20 34 16 0 20
-7 20 -35 0 -41 -22 -90 -45 -98 -8 -4 -15 -18 -15 -35 0 -34 -43 -102 -100
-157 -86 -82 -120 -185 -85 -258 l17 -37 204 0 c175 0 204 -2 204 -15 0 -13
-30 -15 -214 -15 l-215 0 -23 33 c-19 26 -23 44 -23 102 1 88 24 135 110 225
93 97 104 125 53 132 -23 4 -42 -2 -74 -23 -55 -38 -86 -37 -129 4 -53 50 -55
77 -6 123 23 20 59 61 82 90 39 51 40 54 29 94 -10 38 -8 70 4 70 2 0 27 -12
54 -26z m248 -3 c23 -11 60 -37 83 -60 100 -100 129 -246 89 -453 -8 -46 -14
-58 -29 -58 -11 0 -19 2 -19 5 0 3 7 47 16 97 30 174 5 286 -86 380 -58 59
-99 78 -172 78 -32 0 -38 3 -38 21 0 20 3 21 57 15 31 -4 75 -15 99 -25z m159
-863 c0 -10 -54 -14 -264 -16 -248 -2 -292 2 -278 25 3 4 126 7 274 6 214 -1
268 -4 268 -15z"/>
</g>
</svg>
