 <svg  version="1.0" xmlns="http://www.w3.org/2000/svg"  width="300.000000pt" height="105.000000pt" viewBox="0 0 300.000000 105.000000"  preserveAspectRatio="xMidYMid meet">  <g transform="translate(0.000000,105.000000) scale(0.100000,-0.100000)" fill="#dc2751" stroke="none"> <path d="M1040 902 c-30 -14 -30 -16 -29 -91 0 -42 4 -85 8 -96 5 -12 3 -28 -5 -40 -10 -15 -13 -70 -12 -219 1 -194 2 -199 25 -227 l24 -28 414 2 c390 2 414 3 434 21 20 18 21 28 21 241 0 158 -3 224 -12 233 -9 9 -9 15 0 24 7 7 12 41 12 83 0 114 32 106 -444 109 -339 2 -411 0 -436 -12z m858 -100 l3 -82 -437 2 -436 3 -1 71 c0 39 3 76 7 83 5 8 118 11 434 9 l427 -3 3 -83z m-778 -106 c0 -3 -7 -12 -16 -21 -14 -13 -19 -14 -25 -3 -14 22 -10 28 16 28 14 0 25 -2 25 -4z m732 -43 c-6 -59 -7 -60 -30 -40 -16 14 -43 17 -175 17 -98 0 -157 -4 -157 -10 0 -6 62 -10 165 -10 140 0 165 -2 165 -15 0 -13 -25 -15 -169 -15 -126 0 -171 3 -174 13 -4 7 -6 6 -6 -4 -1 -25 17 -28 186 -30 135 -1 157 1 165 15 5 9 13 16 17 16 13 0 12 -297 -2 -308 -12 -9 -424 -15 -439 -6 -5 3 1 17 12 31 18 23 20 40 20 188 0 132 -3 165 -15 175 -8 7 -12 16 -9 21 3 5 106 9 228 9 l224 0 -6 -47z m-793 -180 l-2 -218 407 -3 406 -2 0 220 c0 189 2 220 15 220 13 0 15 -32 15 -224 0 -149 -4 -227 -11 -231 -6 -4 -198 -7 -427 -6 -349 0 -419 3 -427 15 -11 15 -20 419 -10 436 3 6 13 10 21 10 13 0 15 -29 13 -217z m346 17 l0 -175 -147 -3 -148 -3 0 174 c0 96 3 177 7 181 4 3 70 5 147 4 l141 -3 0 -175z m-299 -217 c-12 -12 -29 15 -21 34 7 17 8 16 18 -5 5 -12 7 -25 3 -29z"/> <path d="M1056 861 c-1 -3 -3 -30 -4 -58 l-2 -53 410 0 410 0 0 58 0 57 -406 1 c-223 0 -406 -2 -408 -5z m788 -31 c5 -5 6 -20 2 -34 l-6 -26 -259 0 c-142 0 -260 2 -263 5 -2 3 -3 18 0 35 l4 29 132 3 c188 4 380 -2 390 -12z m-708 -11 c3 -6 0 -18 -9 -26 -18 -18 -37 -9 -37 18 0 21 34 27 46 8z m82 -12 c4 -20 -25 -34 -40 -19 -15 15 -1 44 19 40 10 -2 19 -11 21 -21z m82 4 c0 -27 -19 -36 -37 -18 -18 18 -9 37 18 37 12 0 19 -7 19 -19z"/> <path d="M1502 520 c-31 -13 -39 -40 -17 -56 23 -17 310 -20 320 -4 4 7 -52 10 -159 10 -141 0 -166 2 -166 15 0 13 26 15 170 15 147 0 170 -2 170 -16 0 -9 5 -12 12 -8 8 5 2 15 -16 31 -26 22 -35 23 -159 22 -73 0 -142 -4 -155 -9z"/> <path d="M1485 410 c-4 -7 53 -10 164 -10 145 0 171 -2 171 -15 0 -13 -25 -15 -169 -15 -126 0 -171 3 -174 13 -4 7 -6 8 -6 1 -2 -29 28 -34 184 -32 135 3 159 5 168 20 8 12 7 21 -2 32 -11 13 -40 16 -172 16 -94 0 -160 -4 -164 -10z"/> <path d="M1140 490 l0 -150 120 0 120 0 0 150 0 150 -120 0 -120 0 0 -150z m212 56 c2 -39 1 -96 -2 -126 l-5 -55 -90 0 -90 0 -3 114 c-1 63 0 121 2 128 4 9 30 12 95 11 l90 -1 3 -71z"/> </g> </svg> 