 <svg  version="1.0" xmlns="http://www.w3.org/2000/svg"  width="194.000000pt" height="169.000000pt" viewBox="0 0 194.000000 169.000000"  preserveAspectRatio="xMidYMid meet">  <g transform="translate(0.000000,169.000000) scale(0.100000,-0.100000)" fill="#dc2751" stroke="none"> <path d="M735 1250 c-124 -27 -251 -105 -310 -191 -69 -101 -83 -231 -34 -333 12 -27 49 -77 81 -111 l58 -63 0 -76 c0 -88 11 -116 43 -116 25 0 103 46 156 93 32 28 38 29 93 23 53 -5 173 5 223 20 16 5 18 4 8 -7 -22 -22 -15 -47 20 -72 49 -37 85 -47 167 -49 62 -1 84 -6 126 -30 28 -15 57 -28 66 -28 29 0 48 35 48 87 0 41 5 54 26 74 101 94 111 240 21 322 -56 52 -146 83 -162 57 -14 -22 -22 -7 -28 46 -10 101 -79 211 -171 273 -82 56 -169 82 -285 86 -58 2 -124 0 -146 -5z m277 -36 c158 -47 258 -143 293 -283 63 -245 -154 -445 -462 -428 -87 5 -92 4 -115 -20 -32 -34 -139 -103 -160 -103 -16 0 -18 11 -18 96 l0 96 -58 57 c-81 80 -107 136 -107 231 0 61 6 86 27 130 96 195 362 294 600 224z m421 -389 c20 -8 53 -30 73 -47 88 -78 84 -187 -10 -277 -34 -33 -36 -39 -36 -98 0 -46 -4 -65 -14 -69 -15 -6 -70 18 -99 44 -12 11 -41 15 -105 16 -76 1 -93 4 -139 30 -29 16 -53 33 -53 37 0 19 22 17 67 -7 55 -28 144 -41 182 -26 21 7 32 3 69 -25 24 -18 47 -33 50 -33 4 0 5 23 3 51 -3 50 -2 52 50 105 48 49 53 57 57 108 6 78 -19 116 -104 156 -35 17 -62 35 -59 41 9 13 27 11 68 -6z m55 -115 c40 -59 26 -114 -47 -185 -29 -27 -41 -47 -41 -67 0 -29 -17 -37 -38 -16 -8 8 -41 11 -94 9 -80 -2 -117 6 -166 37 -23 15 -23 15 29 43 112 62 165 123 195 226 l15 52 62 -33 c34 -18 72 -48 85 -66z"/> <path d="M713 1185 c-179 -48 -293 -175 -293 -324 1 -89 25 -139 107 -218 l66 -64 -6 -79 c-3 -44 -3 -80 1 -80 9 0 75 51 117 91 l41 39 62 -11 c125 -22 285 20 372 98 67 61 92 111 98 198 10 166 -101 300 -291 351 -66 18 -206 17 -274 -1z m295 -31 c119 -34 208 -120 240 -230 15 -52 15 -89 -1 -139 -30 -96 -70 -139 -172 -187 -67 -31 -75 -32 -207 -34 l-137 -2 -48 -41 c-27 -22 -55 -41 -61 -41 -8 0 -12 20 -12 56 0 56 -1 58 -61 118 -68 68 -109 142 -109 199 0 153 148 293 340 320 49 7 175 -3 228 -19z"/> <path d="M823 929 c-27 -10 -53 -47 -53 -76 0 -36 42 -76 80 -76 39 0 80 40 80 77 0 51 -59 93 -107 75z m69 -36 c37 -33 10 -93 -43 -93 -52 0 -77 53 -42 92 20 22 61 23 85 1z"/> <path d="M826 864 c-8 -21 1 -34 24 -34 22 0 33 23 17 39 -16 16 -34 14 -41 -5z"/> <path d="M1012 923 c-42 -21 -58 -62 -38 -101 8 -16 29 -35 45 -42 26 -10 35 -10 63 7 41 24 51 61 29 104 -20 41 -57 52 -99 32z m87 -44 c13 -24 13 -29 -2 -53 -13 -19 -26 -26 -51 -26 -39 0 -58 19 -58 57 0 56 83 72 111 22z"/> <path d="M1024 865 c-4 -9 -2 -21 4 -27 15 -15 44 -1 40 19 -4 23 -36 29 -44 8z"/> <path d="M590 898 c-23 -38 -24 -48 -9 -81 22 -49 86 -61 124 -22 54 53 18 135 -58 135 -31 0 -41 -5 -57 -32z m104 -7 c25 -28 17 -72 -16 -90 -25 -14 -29 -14 -55 5 -35 26 -40 57 -14 83 26 26 63 27 85 2z"/> <path d="M637 873 c-12 -12 -7 -41 7 -46 22 -9 41 19 26 38 -14 16 -23 19 -33 8z"/> </g> </svg> 