 <svg  version="1.0" xmlns="http://www.w3.org/2000/svg"  width="154.000000pt" height="150.000000pt" viewBox="0 0 154.000000 150.000000"  preserveAspectRatio="xMidYMid meet">  <g transform="translate(0.000000,150.000000) scale(0.100000,-0.100000)" fill="#dc2751" stroke="none"> <path d="M618 1133 c-39 -43 -202 -245 -223 -276 -15 -23 -16 -33 -7 -48 7 -10 12 -21 12 -24 0 -3 -35 -5 -78 -5 -83 0 -112 -14 -112 -54 0 -31 111 -460 123 -475 7 -9 17 -19 22 -23 6 -4 191 -8 412 -8 400 0 402 0 422 22 12 12 23 29 25 37 18 61 106 433 106 449 0 35 -32 52 -98 52 -62 0 -72 6 -50 28 18 18 1 45 -131 197 -128 147 -157 170 -186 142 -13 -14 -14 -21 -4 -39 18 -34 203 -252 259 -304 l25 -24 -354 0 -354 0 39 44 c41 46 54 54 54 34 0 -7 7 -22 15 -32 14 -19 27 -20 243 -17 190 2 230 5 244 18 23 21 23 40 -1 53 -29 15 -463 14 -479 -2 -6 -6 -15 -9 -18 -5 -7 6 23 47 118 161 59 71 68 92 46 114 -19 19 -42 14 -70 -15z m67 7 c6 -10 -260 -340 -275 -340 -5 0 -11 4 -14 9 -7 10 260 341 274 341 5 0 12 -4 15 -10z m339 -152 c123 -143 154 -188 127 -188 -8 0 -167 178 -279 312 -14 16 -8 42 8 36 4 -2 69 -74 144 -160z m-6 -140 c3 -17 -13 -18 -236 -18 -131 0 -242 3 -245 7 -4 3 -2 12 4 20 10 11 58 13 243 11 211 -3 231 -5 234 -20z m282 -113 c0 -36 -114 -468 -127 -481 -12 -12 -80 -14 -406 -14 -216 0 -398 4 -406 9 -12 8 -131 451 -131 488 0 10 106 13 535 13 471 0 535 -2 535 -15z"/> <path d="M270 715 c0 -5 80 -326 101 -408 l10 -37 386 2 386 3 57 223 56 222 -498 0 c-274 0 -498 -2 -498 -5z m949 -25 c8 -4 -3 -65 -36 -196 l-48 -189 -369 0 -370 0 -42 165 c-46 176 -51 216 -31 223 20 7 884 5 896 -3z"/> <path d="M446 641 c-15 -17 -16 -29 -6 -131 13 -124 19 -149 45 -170 26 -21 58 22 50 70 -3 19 -8 72 -11 118 -5 59 -13 90 -26 108 -23 29 -30 30 -52 5z m56 -141 c10 -82 13 -139 7 -145 -17 -17 -27 9 -38 110 -6 55 -14 117 -17 138 -5 34 -4 38 12 35 16 -3 21 -22 36 -138z"/> <path d="M666 638 c-12 -17 -16 -50 -16 -140 0 -107 2 -119 23 -143 l22 -27 19 21 c16 17 18 36 17 153 -1 77 -7 138 -13 145 -16 19 -35 16 -52 -9z m44 -143 c0 -122 -2 -145 -15 -145 -13 0 -15 23 -15 145 0 122 2 145 15 145 13 0 15 -23 15 -145z"/> <path d="M836 638 c-12 -17 -16 -50 -16 -143 0 -114 1 -123 23 -143 23 -22 24 -22 40 -4 14 15 17 42 17 153 0 134 -6 159 -36 159 -7 0 -20 -10 -28 -22z m44 -143 c0 -122 -2 -145 -15 -145 -8 0 -15 5 -15 10 -1 6 -1 66 -1 135 0 69 0 130 1 135 0 6 7 10 15 10 13 0 15 -23 15 -145z"/> <path d="M1037 642 c-10 -10 -20 -51 -26 -102 -17 -141 -16 -164 3 -190 l17 -25 23 26 c19 22 25 46 35 149 11 112 11 123 -5 141 -21 23 -27 24 -47 1z m43 -9 c-1 -47 -33 -270 -40 -277 -24 -24 -26 17 -10 144 10 74 18 136 19 138 3 6 31 1 31 -5z"/> <path d="M178 879 c-21 -12 -23 -40 -6 -57 7 -7 42 -12 88 -12 65 0 80 3 96 21 19 21 18 21 -5 40 -18 14 -39 19 -90 19 -36 0 -74 -5 -83 -11z m161 -18 c29 -19 -2 -31 -79 -31 -75 0 -98 8 -85 30 8 12 145 13 164 1z"/> <path d="M1212 872 c-21 -16 -21 -19 -7 -40 14 -19 25 -22 79 -22 51 0 66 4 82 21 19 21 18 21 -5 40 -31 25 -117 26 -149 1z m143 -22 c0 -11 -15 -16 -64 -18 -37 -2 -69 2 -75 8 -19 19 14 30 79 28 46 -2 60 -7 60 -18z"/> </g> </svg> 