 <svg  version="1.0" xmlns="http://www.w3.org/2000/svg"  width="159.000000pt" height="140.000000pt" viewBox="0 0 159.000000 140.000000"  preserveAspectRatio="xMidYMid meet">  <g transform="translate(0.000000,140.000000) scale(0.100000,-0.100000)" fill="#dc2751" stroke="none"> <path d="M546 1155 c-15 -8 -54 -15 -86 -15 -80 0 -115 -15 -135 -56 -14 -30 -16 -82 -13 -440 l3 -406 28 -24 28 -24 372 0 c406 0 402 -1 426 57 8 21 11 141 9 431 l-3 402 -27 27 c-24 23 -37 28 -110 33 -46 3 -93 11 -105 18 -34 19 -349 16 -387 -3z m402 -108 c3 -71 1 -79 -23 -103 l-25 -25 -166 3 c-198 4 -194 1 -194 118 0 42 3 80 7 84 4 3 95 5 202 4 l196 -3 3 -78z m-430 36 c-3 -15 -15 -18 -68 -18 l-65 -1 -3 -402 -2 -402 360 0 360 0 0 395 c0 217 -1 398 -2 402 -2 5 -27 6 -56 5 -52 -4 -88 10 -76 29 8 14 148 11 162 -3 17 -17 17 -839 0 -856 -18 -18 -751 -17 -766 1 -16 18 -27 820 -12 847 9 17 21 20 91 20 71 0 80 -2 77 -17z m2 -83 c0 -15 -7 -20 -25 -20 l-25 0 0 -320 0 -320 275 0 275 0 0 319 0 320 -27 3 c-17 2 -28 9 -28 18 0 11 12 15 45 15 l45 0 3 -352 2 -353 -315 0 -315 0 0 348 c0 192 3 352 7 355 3 4 24 7 45 7 31 0 38 -3 38 -20z m226 -110 c160 0 163 0 193 26 17 14 35 23 41 19 12 -7 14 -523 2 -543 -7 -9 -62 -12 -243 -10 l-234 3 -3 265 c-1 146 0 270 2 277 4 9 16 6 42 -12 35 -24 43 -25 200 -25z"/> <path d="M582 1028 l3 -63 160 0 160 0 3 63 3 62 -166 0 -166 0 3 -62z m283 2 l0 -25 -121 -3 c-102 -2 -123 0 -128 13 -3 8 -3 22 0 30 5 13 26 15 128 13 l121 -3 0 -25z"/> <path d="M578 849 c-33 -19 -39 -45 -18 -72 19 -24 19 -26 3 -56 -15 -25 -16 -34 -5 -48 23 -33 24 -44 8 -62 -21 -23 -20 -43 4 -68 17 -19 17 -23 4 -34 -33 -28 -36 -48 -10 -74 25 -25 28 -25 181 -25 142 0 157 2 175 20 26 26 25 55 -2 74 l-22 16 22 23 c27 29 28 49 2 72 l-20 18 20 22 c11 12 20 28 20 37 0 8 -9 23 -20 33 l-20 18 20 22 c26 28 25 60 -2 79 -18 13 -53 16 -173 16 -82 0 -158 -5 -167 -11z m340 -48 c-3 -14 -24 -16 -173 -16 -153 0 -170 2 -173 17 -3 16 12 18 160 20 90 2 169 1 176 -1 7 -2 12 -11 10 -20z m-3 -111 c0 -13 -27 -15 -172 -18 -169 -2 -173 -2 -173 18 0 20 4 20 173 18 145 -3 172 -5 172 -18z m3 -114 c3 -14 -16 -16 -172 -16 -161 0 -176 1 -176 18 0 16 14 17 172 16 150 -2 173 -4 176 -18z m0 -110 c3 -14 -17 -16 -172 -16 -140 0 -176 3 -176 13 0 8 2 16 4 18 2 2 80 3 173 2 144 -1 168 -4 171 -17z"/> </g> </svg> 