 <svg  version="1.0" xmlns="http://www.w3.org/2000/svg"  width="171.000000pt" height="143.000000pt" viewBox="0 0 171.000000 143.000000"  preserveAspectRatio="xMidYMid meet">  <g transform="translate(0.000000,143.000000) scale(0.100000,-0.100000)" fill="#dc2751" stroke="none"> <path d="M637 1176 c-166 -48 -294 -174 -341 -335 -23 -77 -21 -194 4 -266 41 -120 104 -200 206 -265 259 -164 610 -32 704 265 18 58 19 58 52 30 32 -27 48 -31 64 -15 8 8 19 7 36 -1 19 -8 31 -8 47 0 15 9 25 8 41 -1 17 -11 23 -9 42 9 l21 22 -27 40 -27 39 27 42 27 41 -21 22 c-19 18 -25 20 -42 9 -14 -9 -26 -9 -43 -1 -18 8 -30 8 -46 0 -15 -9 -25 -8 -40 1 -17 10 -25 9 -50 -10 -17 -12 -32 -22 -35 -22 -2 0 -12 26 -21 58 -43 149 -155 271 -300 325 -66 25 -213 31 -278 13z m188 -16 c137 -22 280 -129 338 -252 27 -57 52 -162 43 -177 -4 -5 -2 -12 3 -15 5 -4 27 14 47 39 38 45 64 58 64 31 0 -7 -7 -19 -16 -26 -8 -8 -20 -22 -25 -32 -8 -14 -6 -18 9 -18 10 0 33 20 52 45 32 43 53 55 64 37 3 -5 -9 -25 -25 -45 -27 -33 -28 -37 -11 -37 11 0 36 20 56 45 36 43 66 58 66 33 0 -7 -17 -29 -37 -50 l-37 -38 37 -38 c20 -21 37 -43 37 -50 0 -26 -36 -10 -63 28 -17 25 -36 40 -49 40 -19 0 -19 -2 6 -34 31 -41 32 -46 8 -46 -10 0 -31 18 -48 39 -16 22 -39 41 -51 44 -30 6 -29 -4 2 -33 14 -13 25 -29 25 -37 0 -25 -29 -13 -60 27 -43 54 -56 51 -63 -12 -9 -75 -58 -167 -123 -232 -260 -260 -700 -119 -765 245 -34 190 68 387 245 475 99 49 171 60 271 44z"/> <path d="M622 1112 c-102 -37 -198 -122 -244 -217 -51 -103 -51 -250 0 -358 122 -261 469 -321 674 -116 53 53 103 148 114 217 l7 42 -39 0 c-39 0 -39 0 -52 -52 -38 -162 -220 -281 -379 -249 -155 31 -255 131 -283 283 -26 137 52 285 185 356 45 24 61 27 150 27 89 0 105 -3 150 -27 97 -51 172 -154 184 -252 l6 -50 39 -2 38 -1 -5 60 c-11 125 -109 257 -235 319 -58 29 -77 33 -161 35 -74 3 -108 -1 -149 -15z m293 -42 c77 -35 131 -84 173 -153 35 -57 66 -153 55 -170 -8 -14 -33 22 -33 47 0 35 -46 123 -89 169 -78 85 -226 133 -335 108 -120 -27 -208 -95 -258 -201 -123 -255 73 -539 357 -517 153 11 276 116 329 280 3 9 10 17 16 17 16 0 3 -55 -27 -115 -67 -133 -207 -215 -364 -212 -65 2 -85 7 -150 39 -181 90 -261 265 -209 458 28 102 79 170 173 227 113 69 245 77 362 23z"/> <path d="M655 1003 c-163 -59 -245 -234 -185 -396 28 -75 79 -130 155 -168 60 -29 71 -31 143 -27 131 8 228 77 272 195 11 30 20 58 20 63 0 6 -17 10 -37 10 -37 0 -39 -3 -68 -63 -22 -45 -42 -70 -73 -92 -40 -27 -51 -30 -126 -30 -73 0 -87 3 -124 28 -65 43 -96 97 -100 177 -3 54 0 75 18 110 87 170 321 174 405 7 14 -28 25 -63 25 -78 0 -25 3 -26 41 -25 l41 1 -6 43 c-14 100 -84 195 -174 235 -65 28 -164 32 -227 10z m212 -32 c60 -28 112 -78 139 -136 24 -49 31 -95 16 -95 -4 0 -15 21 -24 48 -39 108 -129 172 -243 172 -153 0 -265 -123 -248 -272 19 -177 217 -282 367 -194 51 30 104 87 118 128 10 29 28 38 28 14 0 -52 -81 -148 -150 -179 -54 -23 -146 -27 -209 -8 -31 9 -62 30 -101 69 -47 48 -59 68 -74 121 -21 75 -16 133 19 201 49 96 138 150 250 150 47 0 83 -7 112 -19z"/> <path d="M695 898 c-167 -62 -179 -287 -20 -359 103 -47 223 4 264 114 10 27 10 27 -34 27 -35 0 -45 -4 -50 -21 -4 -11 -21 -29 -38 -40 -58 -35 -124 -21 -157 33 -48 79 5 178 95 178 54 0 115 -54 115 -102 0 -9 14 -14 41 -14 41 -1 41 -1 35 30 -18 89 -86 153 -171 161 -28 2 -63 0 -80 -7z m129 -32 c42 -17 89 -77 84 -107 -3 -20 -6 -18 -30 19 -46 69 -120 92 -185 58 -101 -53 -100 -196 1 -246 67 -32 112 -23 165 34 27 28 41 33 41 14 -1 -41 -81 -88 -148 -88 -115 0 -193 117 -151 227 32 85 134 126 223 89z"/> <path d="M734 792 c-60 -9 -79 -97 -30 -138 34 -30 65 -30 102 -1 l29 22 -40 5 c-27 3 -40 10 -40 20 0 11 11 15 43 13 23 -1 42 1 42 5 0 4 -9 21 -19 38 -19 31 -46 42 -87 36z m39 -30 c16 -7 14 -10 -13 -30 -23 -17 -29 -29 -25 -43 7 -21 -5 -25 -23 -7 -17 17 -15 48 5 70 17 19 27 21 56 10z"/> </g> </svg> 